<?xml version="1.0" encoding="UTF-8"?>
<svg width="22px" height="20px" viewBox="0 0 22 20" version="1.1" xmlns="http://www.w3.org/2000/svg" xmlns:xlink="http://www.w3.org/1999/xlink">
    <!-- Generator: Sketch 51.3 (57544) - http://www.bohemiancoding.com/sketch -->
    <title>ico_cart</title>
    <desc>Created with Sketch.</desc>
    <defs></defs>
    <g id="Page-1" stroke="none" stroke-width="1" fill="none" fill-rule="evenodd">
        <g id="superstore-black" transform="translate(-1082.000000, -31.000000)" fill="#FFFFFF" fill-rule="nonzero">
            <g id="Group-14">
                <g id="Group-15" transform="translate(1038.000000, 26.000000)">
                    <g id="Group-2" transform="translate(44.000000, 0.000000)">
                        <g id="shopping-cart-(1)" transform="translate(0.000000, 5.000000)">
                            <path d="M9.05843882,16.1952743 C8.01080169,16.1952743 7.15848101,17.0475949 7.15848101,18.0952321 C7.15848101,19.1428692 8.01080169,19.9951899 9.05843882,19.9951899 C10.1060759,19.9951899 10.9583966,19.1428692 10.9583966,18.0952321 C10.9583544,17.0475949 10.1060338,16.1952743 9.05843882,16.1952743 Z M9.05843882,18.9342616 C8.5957384,18.9342616 8.21932489,18.5578059 8.21932489,18.0951477 C8.21932489,17.6324473 8.59578059,17.2560338 9.05843882,17.2560338 C9.52109705,17.2560338 9.89755274,17.6324895 9.89755274,18.0951477 C9.89755274,18.5578903 9.52109705,18.9342616 9.05843882,18.9342616 Z" id="Shape"></path>
                            <path d="M15.7227848,16.1952743 C14.6751477,16.1952743 13.822827,17.0475949 13.822827,18.0952321 C13.822827,19.1428692 14.6751477,19.9951899 15.7227848,19.9951899 C16.7704219,19.9951899 17.6227426,19.1428692 17.6227426,18.0952321 C17.6227004,17.0475949 16.7703797,16.1952743 15.7227848,16.1952743 Z M15.7227848,18.9342616 C15.2600844,18.9342616 14.8836709,18.5578059 14.8836709,18.0951477 C14.8836709,17.6324473 15.2601266,17.2560338 15.7227848,17.2560338 C16.1854852,17.2560338 16.5618987,17.6324895 16.5618987,18.0951477 C16.5618987,18.5578903 16.185443,18.9342616 15.7227848,18.9342616 Z" id="Shape"></path>
                            <path d="M16.1905485,6.19219409 L8.58932489,6.19219409 C8.29637131,6.19219409 8.05890295,6.42966245 8.05890295,6.72261603 C8.05890295,7.01556962 8.2964135,7.25303797 8.58932489,7.25303797 L16.1905485,7.25303797 C16.4835021,7.25303797 16.7209705,7.01556962 16.7209705,6.72261603 C16.7209705,6.42962025 16.4835021,6.19219409 16.1905485,6.19219409 Z" id="Shape"></path>
                            <path d="M15.7768354,8.94662447 L9.00308017,8.94662447 C8.71012658,8.94662447 8.47265823,9.18409283 8.47265823,9.47704641 C8.47265823,9.77 8.71012658,10.0074684 9.00308017,10.0074684 L15.7767932,10.0074684 C16.0697468,10.0074684 16.3072152,9.77 16.3072152,9.47704641 C16.3072152,9.18413502 16.0697468,8.94662447 15.7768354,8.94662447 Z" id="Shape"></path>
                            <path d="M21.3645992,3.82886076 C21.1623207,3.58059072 20.8625738,3.43822785 20.5422785,3.43822785 L4.02016878,3.43822785 L3.68649789,1.81843882 C3.61683544,1.48054852 3.38637131,1.19683544 3.06987342,1.05940928 L0.741729958,0.0488607595 C0.472953586,-0.0678902954 0.160590717,0.055443038 0.0440084388,0.324135021 C-0.0727004219,0.592911392 0.0506329114,0.905316456 0.3192827,1.02189873 L2.64746835,2.03248945 L5.21396624,14.4907595 C5.31506329,14.9813924 5.75202532,15.3375105 6.25299578,15.3375105 L18.9604219,15.3375105 C19.2533755,15.3375105 19.4908439,15.1000422 19.4908439,14.8070886 C19.4908439,14.514135 19.2533755,14.2766667 18.9604219,14.2766667 L6.25303797,14.2766667 L5.94084388,12.7612236 L19.0586498,12.7612236 C19.5595781,12.7612236 19.9965823,12.4051055 20.0976371,11.9144726 L21.581308,4.71299578 C21.6459072,4.39940928 21.5669198,4.07708861 21.3645992,3.82886076 Z M19.0586498,11.7004641 L5.72232068,11.7004641 L4.23873418,4.49902954 L20.5422363,4.49902954 L19.0586498,11.7004641 Z" id="Shape"></path>
                        </g>
                    </g>
                </g>
            </g>
        </g>
    </g>
</svg>