<?xml version="1.0" encoding="UTF-8"?>
<svg width="14px" height="17px" viewBox="0 0 14 17" version="1.1" xmlns="http://www.w3.org/2000/svg" xmlns:xlink="http://www.w3.org/1999/xlink">
    <!-- Generator: Sketch 51.3 (57544) - http://www.bohemiancoding.com/sketch -->
    <title>ico_logout</title>
    <desc>Created with Sketch.</desc>
    <defs></defs>
    <g id="Page-1" stroke="none" stroke-width="1" fill="none" fill-rule="evenodd">
        <g id="Order-History" transform="translate(-192.000000, -321.000000)" fill="#FFFFFF" fill-rule="nonzero">
            <g id="unlock" transform="translate(192.000000, 321.000000)">
                <path d="M11.9411765,6.14379085 L4.66539706,6.14379085 L4.66539706,3.45653595 C4.66539706,2.27137255 5.71213725,1.30718954 6.99873039,1.30718954 C8.28532353,1.30718954 9.33206373,2.27137255 9.33206373,3.45653595 L9.33206373,4.70588235 L10.7046127,4.70588235 L10.7046127,3.45653595 C10.7046127,1.55058824 9.04214706,0 6.99873039,0 C4.95531373,0 3.29284804,1.55058824 3.29284804,3.45653595 L3.29284804,6.14379085 L2.05882353,6.14379085 C0.923588235,6.14379085 0,7.02339869 0,8.10457516 L0,14.7712418 C0,15.8524183 0.923588235,16.7320261 2.05882353,16.7320261 L11.9411765,16.7320261 C13.0764118,16.7320261 14,15.8524183 14,14.7712418 L14,8.10457516 C14,7.02339869 13.0764118,6.14379085 11.9411765,6.14379085 Z M12.627451,14.7712418 C12.627451,15.131634 12.3195882,15.4248366 11.9411765,15.4248366 L2.05882353,15.4248366 C1.68041176,15.4248366 1.37254902,15.131634 1.37254902,14.7712418 L1.37254902,8.10457516 C1.37254902,7.74418301 1.68041176,7.45098039 2.05882353,7.45098039 L11.9411765,7.45098039 C12.3195882,7.45098039 12.627451,7.74418301 12.627451,8.10457516 L12.627451,14.7712418 Z" id="Shape"></path>
                <path d="M7,9.34640523 C6.29879902,9.34640523 5.73039216,9.8877451 5.73039216,10.5555556 C5.73039216,10.9819608 5.96235294,11.3565359 6.31245588,11.5718301 L6.31245588,13.0065359 C6.31245588,13.3674837 6.61970098,13.6601307 6.99873039,13.6601307 C7.37772549,13.6601307 7.6850049,13.3674837 7.6850049,13.0065359 L7.6850049,11.573366 C8.03651471,11.3583333 8.26960784,10.9830065 8.26960784,10.5555556 C8.26960784,9.8877451 7.70120098,9.34640523 7,9.34640523 Z" id="Shape"></path>
            </g>
        </g>
    </g>
</svg>