<?xml version="1.0" encoding="UTF-8"?>
<svg width="17px" height="16px" viewBox="0 0 17 16" version="1.1" xmlns="http://www.w3.org/2000/svg" xmlns:xlink="http://www.w3.org/1999/xlink">
    <!-- Generator: Sketch 51.3 (57544) - http://www.bohemiancoding.com/sketch -->
    <title>ico_cart_active</title>
    <desc>Created with Sketch.</desc>
    <defs></defs>
    <g id="Page-1" stroke="none" stroke-width="1" fill="none" fill-rule="evenodd">
        <g id="Order-History" transform="translate(-192.000000, -273.000000)" fill="#E42237" fill-rule="nonzero">
            <g id="shopping-cart-(1)" transform="translate(192.000000, 273.000000)">
                <path d="M6.84431993,12.1676799 C6.00566227,12.1676799 5.32335994,12.8499822 5.32335994,13.6886399 C5.32335994,14.5272975 6.00566227,15.2095998 6.84431993,15.2095998 C7.68297758,15.2095998 8.36527991,14.5272975 8.36527991,13.6886399 C8.36524613,12.8499822 7.6829438,12.1676799 6.84431993,12.1676799 Z M6.84431993,14.3603023 C6.47391758,14.3603023 6.1725899,14.0589409 6.1725899,13.6885723 C6.1725899,13.31817 6.47395136,13.0168423 6.84431993,13.0168423 C7.21468849,13.0168423 7.51604995,13.3182037 7.51604995,13.6885723 C7.51604995,14.0590084 7.21468849,14.3603023 6.84431993,14.3603023 Z" id="Shape"></path>
                <path d="M12.1676799,12.1676799 C11.3290222,12.1676799 10.6467199,12.8499822 10.6467199,13.6886399 C10.6467199,14.5272975 11.3290222,15.2095998 12.1676799,15.2095998 C13.0063375,15.2095998 13.6886399,14.5272975 13.6886399,13.6886399 C13.6886061,12.8499822 13.0063037,12.1676799 12.1676799,12.1676799 Z M12.1676799,14.3603023 C11.7972775,14.3603023 11.4959498,14.0589409 11.4959498,13.6885723 C11.4959498,13.31817 11.7973113,13.0168423 12.1676799,13.0168423 C12.5380822,13.0168423 12.8394099,13.3182037 12.8394099,13.6885723 C12.8394099,14.0590084 12.5380484,14.3603023 12.1676799,14.3603023 Z" id="Shape"></path>
                <path d="M12.5090477,4.56287995 L6.50295205,4.56287995 C6.27147521,4.56287995 6.08383994,4.73311229 6.08383994,4.94311995 C6.08383994,5.15312761 6.27150855,5.32335994 6.50295205,5.32335994 L12.5090477,5.32335994 C12.7405246,5.32335994 12.9281599,5.15312761 12.9281599,4.94311995 C12.9281599,4.73308204 12.7405246,4.56287995 12.5090477,4.56287995 Z" id="Shape"></path>
                <path d="M11.7558193,6.84431993 L6.49573332,6.84431993 C6.2682434,6.84431993 6.08383994,7.01455226 6.08383994,7.22455992 C6.08383994,7.43456758 6.2682434,7.60479992 6.49573332,7.60479992 L11.7557865,7.60479992 C11.9832764,7.60479992 12.1676799,7.43456758 12.1676799,7.22455992 C12.1676799,7.01458251 11.9832764,6.84431993 11.7558193,6.84431993 Z" id="Shape"></path>
                <path d="M16.5456678,2.84501206 C16.3890148,2.66030449 16.1568781,2.55438958 15.9088278,2.55438958 L3.11340417,2.55438958 L2.85499527,1.3493014 C2.80104571,1.09791829 2.62256449,0.88684186 2.37745508,0.784599754 L0.57444189,0.032773396 C0.366290051,-0.0540868768 0.124382976,0.0376704695 0.0340967076,0.237571524 C-0.0562875917,0.437535361 0.0392269806,0.669958006 0.247280789,0.756692713 L2.05032666,1.50855046 L4.03793164,10.7772353 C4.11622549,11.1422556 4.45462744,11.4071999 4.84260025,11.4071999 L14.6837709,11.4071999 C14.9106466,11.4071999 15.0945521,11.2305285 15.0945521,11.0125774 C15.0945521,10.7946262 14.9106466,10.6179549 14.6837709,10.6179549 L4.84263293,10.6179549 L4.60085656,9.49049784 L14.7598427,9.49049784 C15.1477828,9.49049784 15.4862174,9.22555361 15.5644786,8.86053328 L16.7134964,3.5027895 C16.7635247,3.26948789 16.7023535,3.02968824 16.5456678,2.84501206 Z M14.7598427,8.7013156 L4.43162291,8.7013156 L3.2826705,3.34360321 L15.9087951,3.34360321 L14.7598427,8.7013156 Z" id="Shape"></path>
            </g>
        </g>
    </g>
</svg>