<?xml version="1.0" encoding="UTF-8"?>
<svg width="20px" height="20px" viewBox="0 0 20 20" version="1.1" xmlns="http://www.w3.org/2000/svg" xmlns:xlink="http://www.w3.org/1999/xlink">
    <!-- Generator: Sketch 51.3 (57544) - http://www.bohemiancoding.com/sketch -->
    <title>ico_search</title>
    <desc>Created with Sketch.</desc>
    <defs></defs>
    <g id="Page-1" stroke="none" stroke-width="1" fill="none" fill-rule="evenodd">
        <g id="superstore-black" transform="translate(-1038.000000, -31.000000)" fill="#FFFFFF" fill-rule="nonzero">
            <g id="Group-14">
                <g id="Group-15" transform="translate(1038.000000, 26.000000)">
                    <g id="magnifying-glass" transform="translate(0.000000, 5.000000)">
                        <g id="Group-10">
                            <path d="M19.8226164,18.9800443 L14.9445676,14.1019956 C16.2696829,12.6208426 17.0592149,10.6651885 17.0731707,8.51441242 C17.0592149,3.82261641 13.2313151,0 8.51441242,0 C3.82346418,0 5.68434189e-14,3.827051 5.68434189e-14,8.51441242 C5.68434189e-14,13.2283814 3.82789976,17.0554324 8.51441242,17.0731707 C10.6675538,17.0554324 12.6236416,16.2660754 14.1019956,14.9445676 L18.9800443,19.8226164 C19.0995786,19.9379157 19.2548237,20 19.4235033,20 C19.5564427,20 19.7116877,19.9423503 19.8226164,19.8226164 C20.0576625,19.5920177 20.0576625,19.210643 19.8226164,18.9800443 Z M1.19733925,8.51441242 C1.19733925,4.48635127 4.49178608,1.19733925 8.51441242,1.19733925 C12.5858246,1.19733925 15.8758315,4.49078988 15.8758315,8.51441242 C15.8758315,12.5779422 12.5858246,15.8758315 8.51441242,15.8758315 C4.49178608,15.8758315 1.19733925,12.5823809 1.19733925,8.51441242 Z" id="Shape"></path>
                        </g>
                    </g>
                </g>
            </g>
        </g>
    </g>
</svg>