<?xml version="1.0" encoding="UTF-8"?>
<svg width="20px" height="18px" viewBox="0 0 20 18" version="1.1" xmlns="http://www.w3.org/2000/svg" xmlns:xlink="http://www.w3.org/1999/xlink">
    <!-- Generator: Sketch 51.3 (57544) - http://www.bohemiancoding.com/sketch -->
    <title>ico_close</title>
    <desc>Created with Sketch.</desc>
    <defs></defs>
    <g id="Page-1" stroke="none" stroke-width="1" fill="none" fill-rule="evenodd">
        <g id="superstore-black-search" transform="translate(-1090.000000, -106.000000)" fill="#000000" fill-rule="nonzero">
            <g id="Group-10" transform="translate(0.000000, 81.000000)">
                <g id="close" transform="translate(1090.000000, 25.000000)">
                    <path d="M19.7633983,0.212967877 C19.4478904,-0.0709892925 18.9363667,-0.0709892925 18.6208587,0.212967877 L0.236630975,16.7587377 C-0.0788769916,17.0426948 -0.0788769916,17.5030662 0.236630975,17.7870233 C0.394365427,17.9290547 0.601162403,18 0.807920316,18 C1.01467823,18 1.22143614,17.9290195 1.37920966,17.7869882 L19.7633983,1.24121838 C20.0788672,0.957296366 20.0788672,0.496925047 19.7633983,0.212967877 Z" id="Shape"></path>
                    <path d="M19.763393,16.7587377 L1.37913389,0.212967877 C1.06366445,-0.0709892925 0.552100822,-0.0709892925 0.236631379,0.212967877 C-0.0788771264,0.496889891 -0.0788771264,0.95726121 0.236631379,1.24121838 L18.6208905,17.7870233 C18.7786252,17.9290195 18.9854226,18 19.1921808,18 C19.3989391,18 19.6057364,17.9290195 19.7634321,17.7870585 C20.0788625,17.5030662 20.0788625,17.0426948 19.763393,16.7587377 Z" id="Shape"></path>
                </g>
            </g>
        </g>
    </g>
</svg>