<?xml version="1.0" encoding="UTF-8"?>
<svg width="17px" height="16px" viewBox="0 0 17 16" version="1.1" xmlns="http://www.w3.org/2000/svg" xmlns:xlink="http://www.w3.org/1999/xlink">
    <!-- Generator: Sketch 51.3 (57544) - http://www.bohemiancoding.com/sketch -->
    <title>ico_profile_active</title>
    <desc>Created with Sketch.</desc>
    <defs></defs>
    <g id="Page-1" stroke="none" stroke-width="1" fill="none" fill-rule="evenodd">
        <g id="Profile" transform="translate(-192.000000, -225.000000)" fill="#E42237" fill-rule="nonzero">
            <g id="profile" transform="translate(192.000000, 225.000000)">
                <path d="M8.46352837,8.9682974 C10.9733191,8.9682974 13.0090089,6.95973234 13.0090089,4.48344981 C13.0090089,2.00716729 10.973289,0.0123420074 8.46352837,0.0123420074 C5.95376773,0.0123420074 3.91804787,2.02090706 3.91804787,4.48344981 C3.91804787,6.94599257 5.95373759,8.9682974 8.46352837,8.9682974 Z M8.46352837,1.18171004 C10.3040195,1.18171004 11.809906,2.66747955 11.809906,4.48344981 C11.809906,6.29942007 10.3040195,7.78515985 8.46352837,7.78515985 C6.62303723,7.78515985 5.11715071,6.29939033 5.11715071,4.48342007 C5.11715071,2.66744981 6.62300709,1.18171004 8.46352837,1.18171004 Z" id="Shape"></path>
                <path d="M0.599551418,15.9707063 L16.3832677,15.9707063 C16.7179025,15.9707063 16.9828191,15.7093234 16.9828191,15.3791524 C16.9828191,12.283777 14.4312216,9.7524461 11.2800426,9.7524461 L5.7027766,9.7524461 C2.56555319,9.7524461 0,12.2700074 0,15.3791524 C0,15.7093234 0.264916667,15.9707063 0.599551418,15.9707063 Z M5.7027766,10.9355539 L11.2800426,10.9355539 C13.5667234,10.9355539 15.4490514,12.613948 15.7418794,14.7875688 L1.24093972,14.7875688 C1.53373759,12.6277175 3.41609574,10.9355539 5.7027766,10.9355539 Z" id="Shape"></path>
            </g>
        </g>
    </g>
</svg>