<?xml version="1.0" encoding="UTF-8"?>
<svg width="52px" height="31px" viewBox="0 0 52 31" version="1.1" xmlns="http://www.w3.org/2000/svg" xmlns:xlink="http://www.w3.org/1999/xlink">
    <!-- Generator: Sketch 51.3 (57544) - http://www.bohemiancoding.com/sketch -->
    <title>mastercard_logo</title>
    <desc>Created with Sketch.</desc>
    <defs></defs>
    <g id="Page-1" stroke="none" stroke-width="1" fill="none" fill-rule="evenodd">
        <g id="Payment" transform="translate(-234.000000, -296.000000)">
            <g id="Group-10-Copy-3" transform="translate(170.000000, 223.000000)">
                <g id="MasterCard_early_1990s_logo" transform="translate(64.000000, 73.000000)">
                    <g id="g3478" transform="translate(0.023734, 0.044178)">
                        <g id="g3456">
                            <g id="g3159">
                                <path d="M15.6170886,0.00631107492 C7.00633367,0.00631107492 0.0268987342,6.92603868 0.0268987342,15.4621336 C0.0268987342,23.9982279 7.00633367,30.917956 15.6170886,30.917956 C19.5956041,30.917956 23.2263104,29.4396342 25.9810127,27.0082451 C26.2000324,26.8149313 26.4128785,26.6153575 26.6202532,26.4102708 C26.6893782,26.3419087 26.7580734,26.2732472 26.8259494,26.2035831 L25.1360759,26.2035831 C25.2039625,26.2732472 25.2726415,26.3419087 25.3417722,26.4102708 C25.2727099,26.3420561 25.2038451,26.2730635 25.1360759,26.2035831 C24.8386567,25.8986531 24.5547256,25.5820755 24.2832278,25.2537663 C24.223318,25.1813202 24.1630289,25.1079921 24.1044304,25.0344564 C24.1631332,25.1081996 24.2231661,25.1810657 24.2832278,25.2537663 L27.6772152,25.2537663 C27.9174658,24.9629494 28.1482527,24.6639004 28.3670886,24.3560159 L23.5949367,24.3560159 C23.7042861,24.5099511 23.8156749,24.6623873 23.9303797,24.811991 C23.8154081,24.6622095 23.7044451,24.5100127 23.5949367,24.3560159 C23.3275828,23.980048 23.0766765,23.5912595 22.8433544,23.1916226 C22.5409646,22.6736858 22.2681068,22.1375842 22.0268987,21.5838762 C21.9606582,21.4318177 21.8968511,21.2792856 21.835443,21.1247455 C21.7744091,20.9711466 21.7159782,20.815262 21.6598101,20.6593037 C21.547403,20.3471893 21.4436294,20.0305026 21.3512658,19.709487 L30.6123418,19.709487 C30.699721,19.4057693 30.7777165,19.0975434 30.846519,18.7864923 L21.1170886,18.7864923 C21.1686689,19.0197834 21.2259484,19.2513105 21.2879747,19.4807105 C21.2258228,19.2512651 21.16872,19.0200248 21.1170886,18.7864923 C21.0156658,18.3277503 20.9343104,17.8615982 20.875,17.3885892 C20.8688997,17.3399389 20.863238,17.2906458 20.8575949,17.2418567 C20.8633676,17.2910568 20.8687519,17.3395405 20.875,17.3885892 C20.8940841,17.5383969 20.9151554,17.6879649 20.9382911,17.8366755 L31.0253165,17.8366755 C31.0716106,17.5392426 31.1103215,17.2401365 31.1392405,16.9373473 L20.8243671,16.9373473 C20.7944689,16.6241686 20.7750025,16.3074515 20.7642405,15.9891083 C20.7612785,15.9014843 20.7593949,15.8136089 20.7579114,15.7256209 C20.7564329,15.6378697 20.7547468,15.5502351 20.7547468,15.4621336 C20.7547468,15.5503543 20.7562759,15.6378091 20.7579114,15.7256209 C20.7595468,15.8134327 20.7612835,15.9016025 20.7642405,15.9891083 L31.1993671,15.9891083 C31.2020101,15.9110226 31.2040962,15.8323362 31.2056962,15.7540208 C31.2058481,15.7445491 31.2055443,15.7350608 31.2056962,15.7256209 C31.2057458,15.7224654 31.2056456,15.7193063 31.2056962,15.7161543 C31.2072203,15.631488 31.2088608,15.5471927 31.2088608,15.4621336 C31.2088608,15.318493 31.2065671,15.1756865 31.2025316,15.0329805 C31.1876203,14.5058744 31.1457716,13.9849689 31.0791139,13.4725672 L20.8844937,13.4725672 C20.8421413,13.7981358 20.8098233,14.1269403 20.7879747,14.4586726 C20.7825124,14.5416057 20.7778623,14.6246741 20.7737342,14.7079601 C20.7703063,14.7771078 20.7667352,14.8468431 20.7642405,14.9162256 C20.7666759,14.8466533 20.7703727,14.7772956 20.7737342,14.7079601 C20.7777747,14.6246095 20.7826071,14.5416719 20.7879747,14.4586726 C20.8513949,13.4780417 21.007441,12.5221562 21.2468354,11.5997557 C21.3301306,11.2788143 21.4236876,10.9624548 21.5268987,10.6499389 C21.551283,10.5761044 21.5757944,10.502391 21.6012658,10.4290513 C21.6265058,10.356378 21.6524992,10.2834977 21.6787975,10.2113192 C21.6524684,10.2840728 21.62656,10.3558242 21.6012658,10.4290513 C21.5759716,10.5022785 21.5512208,10.5763053 21.5268987,10.6499389 L30.4367089,10.6499389 C30.3394172,10.3554157 30.2346142,10.0638456 30.1202532,9.77743282 L21.8433544,9.77743282 C21.8147661,9.84903878 21.786921,9.9213743 21.7594937,9.99358713 C21.7870446,9.92139803 21.8147489,9.84910088 21.8433544,9.77743282 C21.9720901,9.45489801 22.1115033,9.13908526 22.2610759,8.82761604 C22.3018359,8.74273764 22.3438091,8.65761184 22.3860759,8.57359528 C22.4287342,8.48880018 22.4716471,8.40505171 22.5158228,8.32115228 C22.471921,8.40466345 22.4284901,8.48920358 22.3860759,8.57359528 C22.3436618,8.65798697 22.3020116,8.74237564 22.2610759,8.82761604 L29.7025316,8.82761604 C29.6470223,8.71205976 29.5898542,8.59765511 29.5316456,8.48366246 C29.5040324,8.42967904 29.477599,8.37634692 29.4493671,8.32273005 C29.4421286,8.30895322 29.4344947,8.29546015 29.4272152,8.28170806 C29.4188501,8.26593744 29.4103271,8.25015622 29.4018987,8.234375 C29.3601509,8.1561727 29.3183995,8.07825112 29.2753165,8.00086523 C29.2426537,7.94219647 29.2090714,7.88391798 29.1756329,7.8257329 L22.7879747,7.8257329 C22.9741757,7.50157287 23.1726967,7.18487505 23.3813291,6.87591612 C23.430362,6.80330393 23.4798289,6.73149702 23.5300633,6.65976181 C23.579922,6.58856329 23.6309337,6.51708406 23.681962,6.44676303 C23.784559,6.30537627 23.8880127,6.16640943 23.9952532,6.02865432 C24.2494035,5.70218796 24.5167281,5.38542401 24.7958861,5.08041531 L27.1661392,5.08041531 C27.0726243,4.97826577 26.9774876,4.87712953 26.8813291,4.77748371 C26.5928542,4.47854577 26.2928329,4.19124443 25.9810127,3.91602199 C23.2263104,1.48463281 19.5956041,0.00631107492 15.6170886,0.00631107492 Z M23.9952532,6.02865432 C23.8881894,6.16618173 23.7842537,6.30549138 23.681962,6.44676303 C23.6308162,6.5173991 23.5800491,6.58825884 23.5300633,6.65976181 C23.4800775,6.73126477 23.4301767,6.80359272 23.3813291,6.87591612 L28.5806962,6.87591612 C28.3852415,6.58663412 28.1809549,6.30369954 27.9667722,6.02865432 L23.9952532,6.02865432 Z M21.2468354,11.5997557 C21.1678916,11.9038092 21.0985018,12.2118441 21.0379747,12.5227504 L30.9256329,12.5227504 C30.8651058,12.2118552 30.7957154,11.9037991 30.7167722,11.5997557 L21.2468354,11.5997557 Z M21.6598101,20.6593037 C21.7161681,20.8158376 21.7742734,20.9706594 21.835443,21.1247455 C21.8966127,21.2788317 21.9608466,21.4321817 22.0268987,21.5838762 L29.9367089,21.5838762 C30.0688765,21.2804872 30.1910309,20.972374 30.3037975,20.6593037 L21.6598101,20.6593037 Z M22.8433544,23.1916226 C22.8853818,23.2636067 22.9283762,23.3349077 22.971519,23.4061991 L28.9920886,23.4061991 C29.164759,23.1210344 29.3283185,22.8304034 29.4825949,22.533693 L22.4810127,22.533693 C22.5966648,22.756226 22.7172729,22.9756702 22.8433544,23.1916226 Z M27.3939873,5.33443607 C27.4315954,5.37736653 27.4691924,5.42046966 27.5063291,5.46381311 C27.4692375,5.42051257 27.4315499,5.37732412 27.3939873,5.33443607 Z M28.7246835,7.09049267 C28.7583739,7.13668974 28.7925076,7.18280249 28.8256544,7.22933632 C28.7924209,7.18267021 28.7584635,7.13682 28.7246835,7.09049267 Z M28.9398734,7.43129072 C28.9738493,7.47631241 29.0074245,7.52165622 29.0408443,7.56697883 C29.00745,7.52166935 28.9738232,7.47629928 28.9398734,7.43129072 Z M29.7974684,9.02799267 C29.8315592,9.0892005 29.8652952,9.15095664 29.8984392,9.21259161 C29.8652812,9.15091171 29.8315744,9.08924544 29.7974684,9.02799267 Z M29.3889456,22.7971804 C29.3558225,22.8312594 29.3215344,22.8648919 29.2879747,22.8988197 C29.3214919,22.864927 29.3558631,22.8312238 29.3889456,22.7971804 Z M28.8256544,23.7075529 C28.7920798,23.7496306 28.7587548,23.7919724 28.7246835,23.8337744 C28.7587656,23.7919527 28.7920697,23.7496503 28.8256544,23.7075529 Z M27.5063291,25.460454 C27.4691924,25.5037974 27.4315954,25.5469006 27.3939873,25.589831 C27.4315499,25.546943 27.4692375,25.5037545 27.5063291,25.460454 Z M27.2610759,25.7397191 C27.2164344,25.7893761 27.1718572,25.8389499 27.1265823,25.8880293 C27.1718162,25.8389827 27.2164744,25.7893428 27.2610759,25.7397191 Z M26.9556962,26.0710505 C26.9212172,26.1072427 26.8860922,26.1424777 26.8512658,26.1783388 C26.8860587,26.142503 26.9212506,26.107217 26.9556962,26.0710505 Z" id="path3086" fill="#FF0018"></path>
                                <path d="M36.346519,0.00631107492 C32.3680041,0.00631107492 28.7372972,1.48463281 25.9825949,3.91602199 C26.3980329,4.28275704 26.7923443,4.67210542 27.1661392,5.08041531 L24.7958861,5.08041531 C24.5168739,5.38530586 24.2508663,5.70232226 23.9968354,6.02865432 L27.9667722,6.02865432 C28.1809549,6.30369954 28.3852415,6.58663412 28.5806962,6.87591612 L23.3813291,6.87591612 C23.1726795,7.18490585 22.9741919,7.50153954 22.7879747,7.8257329 L29.1756329,7.8257329 C29.3633342,8.15234264 29.5387519,8.48666906 29.7025316,8.82761604 L22.2610759,8.82761604 C22.1117676,9.13857533 21.9718977,9.45544632 21.8433544,9.77743282 L30.1202532,9.77743282 C30.2346142,10.0638456 30.3394172,10.3554157 30.4367089,10.6499389 L21.5268987,10.6499389 C21.3259828,11.2583528 21.1621235,11.883692 21.0379747,12.5227504 C21.0985018,12.2118441 21.1678916,11.9038092 21.2468354,11.5997557 L30.7167722,11.5997557 C30.7957154,11.9037991 30.8651058,12.2118552 30.9256329,12.5227504 L21.0379747,12.5227504 C20.961561,12.9160919 20.9001428,13.3137755 20.8544304,13.7171213 C20.8637686,13.6353248 20.8739058,13.5539593 20.8844937,13.4725672 L31.0791139,13.4725672 C31.1638182,14.1236939 31.2088608,14.7879361 31.2088608,15.4621336 C31.2088608,15.6385907 31.2052861,15.8140825 31.1993671,15.9891083 L20.7642405,15.9891083 C20.7750152,16.308115 20.7959575,16.6235238 20.8259494,16.9373473 L31.1392405,16.9373473 C31.1103215,17.2401365 31.0716106,17.5392426 31.0253165,17.8366755 L20.9382911,17.8366755 C20.9881068,18.1569787 21.0477544,18.4729974 21.1170886,18.7864923 L30.846519,18.7864923 C30.7777165,19.0975434 30.699721,19.4057693 30.6123418,19.709487 L21.3512658,19.709487 C21.4436967,20.0308 21.5473003,20.346905 21.6598101,20.6593037 L30.3037975,20.6593037 C30.1910309,20.972374 30.0688765,21.2804872 29.9367089,21.5838762 L22.0268987,21.5838762 C22.30156,22.2143092 22.617963,22.8225413 22.971519,23.4061991 C22.7989473,23.1210334 22.6352152,22.8304039 22.4810127,22.533693 L29.4825949,22.533693 C29.3283185,22.8304034 29.164759,23.1210344 28.9920886,23.4061991 L22.971519,23.4061991 C23.1679311,23.7304404 23.3757848,24.0478052 23.5949367,24.3560159 L28.3670886,24.3560159 C28.1482527,24.6639004 27.9174658,24.9629494 27.6772152,25.2537663 L24.2832278,25.2537663 C24.5544182,25.5816892 24.8390299,25.8989889 25.1360759,26.2035831 L26.8259494,26.2035831 C26.5547185,26.4819605 26.2743068,26.7507305 25.9825949,27.0082451 C28.7372972,29.4396342 32.3680041,30.917956 36.346519,30.917956 C44.9572749,30.917956 51.9367089,23.9982279 51.9367089,15.4621336 C51.9367089,6.92603868 44.9572749,0.00631107492 36.346519,0.00631107492 Z M23.5949367,24.3560159 C23.6495711,24.432853 23.7050724,24.5089958 23.7610759,24.5847923 C23.7050663,24.5089156 23.6496116,24.4329832 23.5949367,24.3560159 Z M22.0268987,21.5838762 C21.8947949,21.2804877 21.7725256,20.9723719 21.6598101,20.6593037 C21.7725686,20.9723926 21.8947185,21.2804806 22.0268987,21.5838762 Z M20.7705328,15.9891083 C20.7646361,15.9016025 20.7611728,15.8134327 20.7579114,15.7256209 C20.7608698,15.813305 20.7646562,15.9017857 20.7705328,15.9891083 Z M20.7610575,15.7256209 C20.7577962,15.6378091 20.7547468,15.5503543 20.7547468,15.4621336 C20.7547468,15.5503538 20.7580991,15.6377516 20.7610575,15.7256209 Z M20.9016222,13.7171213 C20.8645901,13.880977 20.8336052,14.0455981 20.806962,14.2109629 C20.8339839,14.0458284 20.8643791,13.880715 20.9016222,13.7171213 Z M20.8211196,14.2109629 C20.8108993,14.2743948 20.8013959,14.3382275 20.7927215,14.401873 C20.8015767,14.3380301 20.8107085,14.2745877 20.8211196,14.2109629 Z M21.5268987,10.6499389 C21.5599216,10.5763053 21.5935268,10.5022785 21.6278696,10.4290513 C21.5932992,10.5023714 21.5599945,10.5761246 21.5268987,10.6499389 Z M21.8762873,9.77743282 C21.8415887,9.8360001 21.8089707,9.89522726 21.7753165,9.95414292 C21.8088114,9.89525251 21.8416375,9.83591427 21.8762873,9.77743282 Z M23.3813291,6.87591612 C23.4301767,6.80359272 23.4800775,6.73126477 23.5300633,6.65976181 C23.4799382,6.73134808 23.4302582,6.80345691 23.3813291,6.87591612 Z M23.5300633,6.65976181 C23.5800491,6.58825884 23.6308162,6.5173991 23.681962,6.44676303 C23.6307711,6.51730721 23.5800775,6.58833458 23.5300633,6.65976181 Z M22.5158228,8.32115228 C22.4759544,8.39688366 22.4373676,8.4734673 22.3987342,8.54992875 C22.4372653,8.47358998 22.4760714,8.39676805 22.5158228,8.32115228 Z M21.7797683,10.0235647 C21.7454309,10.0859808 21.7119827,10.148522 21.6787975,10.2113192 C21.7117279,10.1485791 21.7456585,10.0859065 21.7797683,10.0235647 Z M20.7847456,14.7079601 C20.7770718,14.787366 20.7679138,14.8664872 20.7626582,14.9462032 C20.76804,14.8667927 20.7769264,14.7870636 20.7847456,14.7079601 Z M20.875,17.3885892 C20.8869873,17.4365215 20.8999963,17.4843706 20.9128641,17.5321661 C20.8998035,17.484306 20.8871912,17.4365786 20.875,17.3885892 Z M21.1186709,18.7943811 C21.1510139,18.8698171 21.1851575,18.9449836 21.2196418,19.020002 C21.1853405,18.9452163 21.1508758,18.8695233 21.1186709,18.7943811 Z M21.2278481,19.2503563 C21.2610464,19.3240272 21.2937368,19.3979976 21.328819,19.4712439 C21.2937852,19.3979551 21.2609935,19.3240883 21.2278481,19.2503563 Z M25.1550633,26.2225163 C25.2168592,26.2856649 25.2789053,26.3481718 25.3417722,26.4102708 C25.2789985,26.3481945 25.2168106,26.2856659 25.1550633,26.2225163 Z" id="path3155" fill="#FFAA18"></path>
                            </g>
                            <g id="g3442" transform="translate(49.468354, 24.285016)" fill="#FFAA18" fill-rule="nonzero">
                                <path d="M0.753129114,0.00474138436 C0.876389873,0.00474138436 0.997853165,0.0363038274 1.11494177,0.100454137 C1.23306329,0.162552085 1.32493165,0.253903127 1.39081013,0.372196906 C1.45694177,0.489720733 1.48936709,0.612120749 1.48936709,0.740165391 C1.48936709,0.866670635 1.45694177,0.988813664 1.39183291,1.10556754 C1.32724557,1.22232243 1.23640506,1.31392945 1.11931646,1.37833674 C1.00248608,1.44248705 0.879994937,1.47481894 0.752870886,1.47481894 C0.624718987,1.47481894 0.502222785,1.44248705 0.385139241,1.37833674 C0.268308861,1.31341598 0.177721519,1.22232243 0.112875949,1.10556754 C0.0469959494,0.988813664 0.0148293671,0.866670635 0.0148293671,0.740165391 C0.0148293671,0.612120749 0.0475113924,0.489720733 0.11364557,0.372196906 C0.180040506,0.253903127 0.272167089,0.163065554 0.389767089,0.100454137 C0.5084,0.0363038274 0.629863291,0.00474138436 0.753129114,0.00474138436 M0.753129114,0.12585798 C0.649934177,0.12585798 0.549063291,0.152544235 0.450501266,0.206174739 C0.352197468,0.258521824 0.275772152,0.334219886 0.220440506,0.43326842 C0.165372152,0.531033534 0.137579747,0.633418355 0.137579747,0.739651922 C0.137579747,0.845885489 0.164339241,0.947500358 0.218126582,1.04449653 C0.272941772,1.14123521 0.349108861,1.21718976 0.447412658,1.27184669 C0.544683544,1.32521971 0.646334177,1.35216345 0.753129114,1.35216345 C0.859149367,1.35216345 0.96156962,1.32521971 1.05884051,1.27184669 C1.15611646,1.21718976 1.23228861,1.14123521 1.28632911,1.04449653 C1.34062785,0.946730407 1.36713418,0.845885489 1.36713418,0.739651922 C1.36713418,0.633418355 1.3396,0.531033534 1.28452658,0.43326842 C1.22971646,0.334219886 1.15328608,0.258521824 1.05447089,0.206174739 C0.956678481,0.152801221 0.856577215,0.12585798 0.753129114,0.12585798 M0.430172152,1.1461109 L0.430172152,0.355004023 L0.703205063,0.355004023 C0.796101266,0.355004023 0.864040506,0.362445537 0.905210127,0.377585554 C0.946901266,0.391698632 0.97958481,0.417101971 1.00505823,0.453796075 C1.03002025,0.490234202 1.04263291,0.528467704 1.04263291,0.569524023 C1.04263291,0.627259756 1.02152911,0.677810456 0.979843038,0.720407182 C0.939179747,0.763002899 0.88436962,0.787636792 0.815913924,0.792255489 C0.843194937,0.804059218 0.865843038,0.818172296 0.883341772,0.834081759 C0.914992405,0.86538772 0.954106329,0.9177343 1.00042532,0.990866531 L1.09744304,1.14585441 L0.940724051,1.14585441 L0.870987342,1.02140204 C0.815402532,0.923122948 0.770881013,0.862051433 0.736916456,0.837161059 C0.713498734,0.818942248 0.679270886,0.809961336 0.634237975,0.809961336 L0.559351899,0.809961336 L0.559351899,1.14636788 L0.430172152,1.14611544 M0.558324051,0.700909495 L0.713756962,0.700909495 C0.788126582,0.700909495 0.838308861,0.689875212 0.865068354,0.667807655 C0.892091139,0.646252557 0.906243038,0.616743485 0.906243038,0.580049381 C0.906243038,0.556698404 0.899807595,0.53565728 0.886941772,0.517951433 C0.873817722,0.498963176 0.855544304,0.485363062 0.832131646,0.475868681 C0.808713924,0.466887264 0.766764557,0.462268567 0.703974684,0.462268567 L0.558582278,0.462268567 L0.558582278,0.700909495" id="text9407"></path>
                            </g>
                        </g>
                        <g id="g3463" transform="translate(49.468354, 17.923453)" fill="#FFFFFF" fill-rule="nonzero">
                            <g id="g3445" transform="translate(0.000000, 0.047416)">
                                <path d="M0.753129114,0.00474138436 C0.876389873,0.00474138436 0.997853165,0.0363038274 1.11494177,0.100454137 C1.23306329,0.162552085 1.32493165,0.253903127 1.39081013,0.372196906 C1.45694177,0.489720733 1.48936709,0.612120749 1.48936709,0.740165391 C1.48936709,0.866670635 1.45694177,0.988813664 1.39183291,1.10556754 C1.32724557,1.22232243 1.23640506,1.31392945 1.11931646,1.37833674 C1.00248608,1.44248705 0.879994937,1.47481894 0.752870886,1.47481894 C0.624718987,1.47481894 0.502222785,1.44248705 0.385139241,1.37833674 C0.268308861,1.31341598 0.177721519,1.22232243 0.112875949,1.10556754 C0.0469959494,0.988813664 0.0148293671,0.866670635 0.0148293671,0.740165391 C0.0148293671,0.612120749 0.0475113924,0.489720733 0.11364557,0.372196906 C0.180040506,0.253903127 0.272167089,0.163065554 0.389767089,0.100454137 C0.5084,0.0363038274 0.629863291,0.00474138436 0.753129114,0.00474138436 M0.753129114,0.12585798 C0.649934177,0.12585798 0.549063291,0.152544235 0.450501266,0.206174739 C0.352197468,0.258521824 0.275772152,0.334219886 0.220440506,0.43326842 C0.165372152,0.531033534 0.137579747,0.633418355 0.137579747,0.739651922 C0.137579747,0.845885489 0.164339241,0.947500358 0.218126582,1.04449653 C0.272941772,1.14123521 0.349108861,1.21718976 0.447412658,1.27184669 C0.544683544,1.32521971 0.646334177,1.35216345 0.753129114,1.35216345 C0.859149367,1.35216345 0.96156962,1.32521971 1.05884051,1.27184669 C1.15611646,1.21718976 1.23228861,1.14123521 1.28632911,1.04449653 C1.34062785,0.946730407 1.36713418,0.845885489 1.36713418,0.739651922 C1.36713418,0.633418355 1.3396,0.531033534 1.28452658,0.43326842 C1.22971646,0.334219886 1.15328608,0.258521824 1.05447089,0.206174739 C0.956678481,0.152801221 0.856577215,0.12585798 0.753129114,0.12585798 M0.430172152,1.1461109 L0.430172152,0.355004023 L0.703205063,0.355004023 C0.796101266,0.355004023 0.864040506,0.362445537 0.905210127,0.377585554 C0.946901266,0.391698632 0.97958481,0.417101971 1.00505823,0.453796075 C1.03002025,0.490234202 1.04263291,0.528467704 1.04263291,0.569524023 C1.04263291,0.627259756 1.02152911,0.677810456 0.979843038,0.720407182 C0.939179747,0.763002899 0.88436962,0.787636792 0.815913924,0.792255489 C0.843194937,0.804059218 0.865843038,0.818172296 0.883341772,0.834081759 C0.914992405,0.86538772 0.954106329,0.9177343 1.00042532,0.990866531 L1.09744304,1.14585441 L0.940724051,1.14585441 L0.870987342,1.02140204 C0.815402532,0.923122948 0.770881013,0.862051433 0.736916456,0.837161059 C0.713498734,0.818942248 0.679270886,0.809961336 0.634237975,0.809961336 L0.559351899,0.809961336 L0.559351899,1.14636788 L0.430172152,1.14611544 M0.558324051,0.700909495 L0.713756962,0.700909495 C0.788126582,0.700909495 0.838308861,0.689875212 0.865068354,0.667807655 C0.892091139,0.646252557 0.906243038,0.616743485 0.906243038,0.580049381 C0.906243038,0.556698404 0.899807595,0.53565728 0.886941772,0.517951433 C0.873817722,0.498963176 0.855544304,0.485363062 0.832131646,0.475868681 C0.808713924,0.466887264 0.766764557,0.462268567 0.703974684,0.462268567 L0.558582278,0.462268567 L0.558582278,0.700909495" id="path3447"></path>
                            </g>
                        </g>
                    </g>
                    <g id="layer1" transform="translate(1.712473, 12.417234)" fill="#FFFFFF" fill-rule="nonzero">
                        <g id="g16480">
                            <g id="g10289">
                                <path d="M19.4252569,6.77812193 L19.6292986,5.59803205 C19.5178618,5.59803205 19.3539028,5.63864868 19.209294,5.63864868 C18.6419163,5.63864868 18.5793735,5.38170431 18.6154825,5.19171852 L19.0738421,2.78385837 L19.9361387,2.78385837 L20.1443269,1.47853386 L19.3312699,1.47853386 L19.4967838,0.666789779 L17.8668687,0.666789779 C17.8309325,0.697399418 16.9047109,5.232188 16.9047109,5.78433879 C16.9047109,6.60182218 17.4435815,6.96590029 18.2034253,6.96001382 C18.7984462,6.95574613 19.2618162,6.815501 19.4252569,6.77812193 Z" id="path4157"></path>
                                <path d="M19.9416674,4.5281663 C19.9416674,6.49012643 21.4620461,6.95633478 22.7573051,6.95633478 C23.9528756,6.95633478 24.4789612,6.72867559 24.4789612,6.72867559 L24.7661055,5.38965104 C24.7661055,5.38965104 23.8566426,5.73091909 23.0352925,5.73091909 C21.2851293,5.73091909 21.5916238,4.61940657 21.5916238,4.61940657 L24.9039762,4.61940657 C24.9039762,4.61940657 25.1178658,3.71980694 25.1178658,3.35322708 C25.1178658,2.4384698 24.5833145,1.32386688 22.7937596,1.32386688 C21.1548605,1.32416121 19.9416674,2.82830121 19.9416674,4.5281663 Z M22.7999793,2.56723631 C23.7198085,2.56723631 23.550148,3.44770491 23.550148,3.51893119 L21.7405518,3.51893119 C21.7405518,3.42798524 21.9115944,2.56723631 22.7999793,2.56723631 Z" id="path4155"></path>
                                <path d="M33.1212776,6.77753328 L33.4129139,5.26397493 C33.4129139,5.26397493 32.6131601,5.60553729 32.0642689,5.60553729 C30.9080899,5.60553729 30.4443744,4.85354088 30.4443744,4.045623 C30.4443744,2.40668286 31.4391859,1.50502297 32.5466436,1.50502297 C33.3771504,1.50502297 34.0436983,1.90221247 34.0436983,1.90221247 L34.3097646,0.431625342 C34.3097646,0.431625342 33.3213456,0.0909459465 32.47408,0.0909459465 C30.5924386,0.0909459465 28.7619372,1.48132993 28.7619372,4.09256759 C28.7619372,5.82407246 29.7503561,6.96766623 31.6954042,6.96766623 C32.2453321,6.96781339 33.1212776,6.77753328 33.1212776,6.77753328 Z" id="path4151"></path>
                                <path d="M10.4607239,1.34549966 C9.34307276,1.34549966 8.4863048,1.65144889 8.4863048,1.65144889 L8.24978225,2.84743223 C8.24978225,2.84743223 8.95693112,2.60270228 10.025861,2.60270228 C10.6328031,2.60270228 11.0768228,2.66083116 11.0768228,3.08097789 C11.0768228,3.33615632 11.0224002,3.43033983 11.0224002,3.43033983 C11.0224002,3.43033983 10.5436536,3.39619831 10.3219893,3.39619831 C8.91235638,3.39619831 7.43154207,3.90861544 7.43154207,5.45351923 C7.43154207,6.67084103 8.40302951,6.95015398 9.00513404,6.95015398 C10.1550932,6.95015398 10.6507712,6.31456249 10.6772051,6.31264939 L10.6234735,6.84316741 L12.0586765,6.84316741 L12.6989632,3.01975861 C12.6989632,1.39774207 11.0377767,1.34549966 10.4607239,1.34549966 Z M10.8098927,4.4585588 C10.8409913,4.69210446 10.6379862,5.78684054 9.65665087,5.78684054 C9.15043387,5.78684054 9.01878289,5.4574926 9.01878289,5.26265047 C9.01878289,4.8826789 9.26117964,4.42647755 10.4555408,4.42647755 C10.7333554,4.42677187 10.7630719,4.45208369 10.8098927,4.4585588 Z" id="path4149"></path>
                                <path d="M14.2243523,6.92219326 C14.5914892,6.92219326 16.6903029,7.00166059 16.6903029,5.15698835 C16.6903029,3.43240009 14.7475008,3.77307949 14.7475008,3.08024208 C14.7475008,2.735295 15.0641888,2.62668964 15.6429693,2.62668964 C15.8727538,2.62668964 16.7568195,2.68893905 16.7568195,2.68893905 L16.9624162,1.46308188 C16.9624162,1.46322904 16.3902009,1.35403504 15.4586234,1.35403504 C14.2528594,1.35403504 13.0289545,1.76402761 13.0289545,3.16677318 C13.0289545,4.75626698 15.0697174,4.59674366 15.0697174,5.26632952 C15.0697174,5.71325968 14.4995754,5.74960862 14.0602205,5.74960862 C13.2998584,5.74960862 12.6151696,5.52739442 12.6127509,5.53799006 L12.3954058,6.75148565 C12.4347974,6.76178697 12.8570481,6.92219326 14.2243523,6.92219326 Z" id="path4145"></path>
                                <path d="M46.6224134,0.245465759 L46.2708258,2.10367687 C46.2708258,2.10367687 45.6573184,1.3818486 44.6968883,1.3818486 C43.2034617,1.3818486 41.9586517,2.91556811 41.9586517,4.67782978 C41.9586517,5.81538992 42.622608,6.92999283 43.9798915,6.92999283 C44.9562165,6.92999283 45.4975059,6.35017563 45.4975059,6.35017563 L45.4258062,6.84537483 L47.0111466,6.84537483 L48.2563022,0.243258333 L46.6224134,0.245465759 Z M45.8655067,3.86858745 C45.8655067,4.60189433 45.4392823,5.58140277 44.5555622,5.58140277 C43.969007,5.58140277 43.6941294,5.16199185 43.6941294,4.50373745 C43.6941294,3.42739659 44.2616799,2.7171941 44.9778128,2.7171941 C45.5645408,2.71704694 45.8655067,3.06037525 45.8655067,3.86858745 Z" id="path4139"></path>
                                <polygon id="path4133" points="1.63544374 6.85111414 2.62766363 1.86674649 2.773309 6.85111414 3.89631601 6.85111414 5.991156 1.86674649 5.06320667 6.85111414 6.73182231 6.85111414 8.01688787 0.240167936 5.43656331 0.240167936 3.82962667 4.29638658 3.74600584 0.240167936 1.36747699 0.240167936 0.0639250143 6.85111414"></polygon>
                                <path d="M26.7479537,6.86023817 C27.2223809,4.56216066 27.310321,2.69614998 28.4424849,3.03771234 C28.6406524,2.14826687 28.8319091,1.80420276 29.0482176,1.42776306 C29.0482176,1.42776306 28.9468014,1.40966217 28.7339484,1.40966217 C28.0039938,1.40966217 27.4632228,2.25907965 27.4632228,2.25907965 L27.6085226,1.47897534 L26.0909082,1.47897534 L25.0741549,6.86023817 L26.7479537,6.86023817 Z" id="path4131"></path>
                                <g id="use8523" transform="translate(33.691281, 1.324456)">
                                    <path d="M3.19089483,0.0210441268 C2.07324371,0.0210441268 1.21647574,0.326993355 1.21647574,0.326993355 L0.980125962,1.5229767 C0.980125962,1.5229767 1.68727484,1.27824675 2.75620474,1.27824675 C3.36314683,1.27824675 3.80682099,1.33637563 3.80682099,1.75652236 C3.80682099,2.01170079 3.75274388,2.1058843 3.75274388,2.1058843 C3.75274388,2.1058843 3.27399735,2.07174277 3.05216028,2.07174277 C1.6427001,2.07174277 0.161885779,2.5841599 0.161885779,4.1290637 C0.161885779,5.3463855 1.13320046,5.62569845 1.73530498,5.62569845 C2.88526416,5.62569845 3.38094217,4.99010696 3.40720326,4.98819386 L3.35381724,5.51871188 C3.35381724,5.51871188 4.78850188,5.51871188 4.78902019,5.51871188 L5.42913419,1.69530308 C5.42930696,0.0732865394 3.76794767,0.0210441268 3.19089483,0.0210441268 Z M3.54058194,3.13410327 C3.5716806,3.36764893 3.36850271,4.46238501 2.38682182,4.46238501 C1.88060481,4.46238501 1.74929938,4.13303707 1.74929938,3.93819494 C1.74929938,3.55822337 1.99169612,3.10202202 3.1858845,3.10202202 C3.46369915,3.10231634 3.49324287,3.12762816 3.54058194,3.13410327 Z" id="path4149_1_"></path>
                                </g>
                                <g id="use8525" transform="translate(38.749910, 1.324456)">
                                    <path d="M1.6822645,5.53578264 C2.15686454,3.23770513 2.24480462,1.37169445 3.37662292,1.71325681 C3.575136,0.823811341 3.7665655,0.479747226 3.98270116,0.103307531 C3.98270116,0.103307531 3.88128499,0.0852066392 3.66843197,0.0852066392 C2.93847741,0.0852066392 2.39770635,0.93462412 2.39770635,0.93462412 L2.54300618,0.154519812 L1.02539178,0.154519812 L0.00863851544,5.53578264 L1.6822645,5.53578264 Z" id="path4131_1_"></path>
                                </g>
                            </g>
                        </g>
                    </g>
                </g>
            </g>
        </g>
    </g>
</svg>