<?xml version="1.0" encoding="UTF-8"?>
<svg width="18px" height="20px" viewBox="0 0 18 20" version="1.1" xmlns="http://www.w3.org/2000/svg" xmlns:xlink="http://www.w3.org/1999/xlink">
    <!-- Generator: Sketch 51.3 (57544) - http://www.bohemiancoding.com/sketch -->
    <title>writing</title>
    <desc>Created with Sketch.</desc>
    <defs></defs>
    <g id="Page-1" stroke="none" stroke-width="1" fill="none" fill-rule="evenodd">
        <g id="Profile" transform="translate(-594.000000, -614.000000)" fill="#FFFFFF" fill-rule="nonzero">
            <g id="Group-10" transform="translate(446.000000, 595.000000)">
                <g id="writing" transform="translate(148.000000, 19.000000)">
                    <path d="M12.7523047,8.59375 C12.7523047,8.16226562 12.4025391,7.8125 11.9710547,7.8125 L3.92417969,7.8125 C3.49269531,7.8125 3.14292969,8.16226562 3.14292969,8.59375 C3.14292969,9.02523438 3.49269531,9.375 3.92417969,9.375 L11.9710547,9.375 C12.4025391,9.375 12.7523047,9.02523438 12.7523047,8.59375 Z" id="Shape"></path>
                    <path d="M3.92417969,10.9375 C3.49269531,10.9375 3.14292969,11.2872656 3.14292969,11.71875 C3.14292969,12.1502344 3.49269531,12.5 3.92417969,12.5 L8.81132812,12.5 C9.2428125,12.5 9.59257812,12.1502344 9.59257812,11.71875 C9.59257812,11.2872656 9.2428125,10.9375 8.81132812,10.9375 L3.92417969,10.9375 Z" id="Shape"></path>
                    <path d="M5.76011719,18.4375 L3.14726562,18.4375 C2.28570312,18.4375 1.58476562,17.7365625 1.58476562,16.875 L1.58476562,3.125 C1.58476562,2.2634375 2.28570312,1.5625 3.14726562,1.5625 L12.7523047,1.5625 C13.6138672,1.5625 14.3148047,2.2634375 14.3148047,3.125 L14.3148047,7.9296875 C14.3148047,8.36117188 14.6645703,8.7109375 15.0960547,8.7109375 C15.5275391,8.7109375 15.8773047,8.36117188 15.8773047,7.9296875 L15.8773047,3.125 C15.8773047,1.401875 14.4754297,0 12.7523047,0 L3.14726562,0 C1.42414062,0 0.022265625,1.401875 0.022265625,3.125 L0.022265625,16.875 C0.022265625,18.598125 1.42414062,20 3.14726562,20 L5.76011719,20 C6.19160156,20 6.54136719,19.6502344 6.54136719,19.21875 C6.54136719,18.7872656 6.19160156,18.4375 5.76011719,18.4375 Z" id="Shape"></path>
                    <path d="M17.2610937,11.3114062 C16.3472656,10.3975781 14.8603906,10.3975391 13.9471484,11.3107812 L9.65796875,15.5904687 C9.566875,15.6813672 9.4996875,15.7933203 9.46226562,15.9164453 L8.52816406,18.9916406 C8.44535156,19.2642969 8.5175,19.5603516 8.71648437,19.7642969 C8.86554687,19.9170703 9.06804687,20 9.27574219,20 C9.34523437,20 9.41539062,19.9907031 9.48425781,19.9716016 L12.6375781,19.098125 C12.7673437,19.0621875 12.885625,18.9933203 12.9809375,18.8981641 L17.2611328,14.6260156 C18.1749609,13.7121875 18.1749609,12.2253125 17.2610937,11.3114062 Z M12.0225,17.6471875 L10.4360938,18.0866406 L10.9003516,16.5581641 L13.7944531,13.6704687 L14.8995313,14.7755469 L12.0225,17.6471875 Z M16.1568359,13.5207031 L16.0054687,13.6717578 L14.9005859,12.566875 L15.0514453,12.4163281 C15.3560547,12.1117188 15.8516797,12.1117188 16.1562891,12.4163281 C16.4608984,12.7209375 16.4608984,13.2165625 16.1568359,13.5207031 Z" id="Shape"></path>
                    <path d="M11.9710547,4.6875 L3.92417969,4.6875 C3.49269531,4.6875 3.14292969,5.03726562 3.14292969,5.46875 C3.14292969,5.90023438 3.49269531,6.25 3.92417969,6.25 L11.9710547,6.25 C12.4025391,6.25 12.7523047,5.90023438 12.7523047,5.46875 C12.7523047,5.03726562 12.4025391,4.6875 11.9710547,4.6875 Z" id="Shape"></path>
                </g>
            </g>
        </g>
    </g>
</svg>